201 0 1 0           
7 Unknown 11 ACIS 2.1 NT 24 Wed Mar 17 18:00:36 1999 
-1 9.9999999999999995e-007 1e-010 
body $-1 $1 $-1 $-1 #
lump $2 $-1 $3 $0 #
integer_attrib-name_attrib-gen-attrib $-1 $-1 $-1 $1 copy keep_kept ignore 5 JSInd -9999 #
shell $-1 $-1 $-1 $4 $-1 $1 #
face $5 $6 $7 $3 $-1 $8 forward double out #
integer_attrib-name_attrib-gen-attrib $-1 $-1 $-1 $4 copy keep_kept ignore 5 JSLGF 1 #
face $9 $10 $11 $3 $-1 $12 forward double out #
loop $-1 $-1 $13 $4 #
spline-surface $-1 reversed { exactsur nubs 3 3 open open none none 15 9 
	0 3 0.071428571428571425 1 0.14285714285714279 1 0.2142857142857143 3 0.2857142857142857 3 
	0.35714285714285721 3 0.42857142857142849 3 0.5 1 0.5714285714285714 1 0.6428571428571429 1 
	0.7142857142857143 1 0.7857142857142857 1 0.8571428571428571 1 0.9285714285714286 1 1 3 
	0 3 0.125 2 0.25 1 0.375 1 0.5 1 
	0.625 1 0.75 1 0.875 2 1 3 
	0 0 8.2509440000000023 
	11.679100000000005 0 6.4800990000000001 
	21.902500000000003 0 4.5037989999999999 
	31.459699999999998 0 2.6723979999999998 
	37.569999999999993 0 1.6757310000000001 
	41.305900000000008 0 1.2471399999999999 
	45.041899999999998 0 0.81854899999999997 
	49.458699999999993 0 0.45969900000000002 
	54.878800000000012 0 0.14449899999999999 
	59.907100000000014 0 0.00019900000000001229 
	65.527800000000013 0 0.00019899999999998391 
	70.847499999999997 0 9.8999999999999994e-005 
	94.333800000000011 0 9.8999999999999994e-005 
	113.66022000000001 0 9.8999999999999994e-005 
	132.43565000000001 0 9.8999999999999994e-005 
	134.10381999999998 0 9.8999999999999994e-005 
	139.30262999999999 0 9.8999999999999994e-005 
	150.44914 0 9.8999999999999994e-005 
	164.66554000000002 0 -9.9999999999999995e-007 
	173.08525 0 -9.9999999999999995e-007 
	182.43073000000001 0 -9.9999999999999995e-007 
	198.305823 0 -1.000000000000001e-006 
	201.0596219 0 -9.9999999999999995e-007 
	201.0596219 0 -9.9999999999999995e-007 
	202.5809703011976 0 0.51840870974791609 
	0 -0.25758999999999999 8.2509440000000023 
	11.679100000000005 -0.28303 6.4800990000000001 
	21.902500000000003 -0.29797000000000001 4.5037989999999999 
	31.459699999999998 -0.29931999999999997 2.6723979999999998 
	37.569999999999993 -0.30023300000000003 1.6757310000000001 
	41.305900000000008 -0.30108200000000002 1.2471399999999999 
	45.041899999999998 -0.30192999999999992 0.81854899999999997 
	49.458699999999993 -0.30317 0.45969900000000002 
	54.878800000000012 -0.30592999999999998 0.14449899999999999 
	59.907100000000014 -3.0127000000000002 9.8999999999999994e-005 
	65.527800000000013 -4.0265000000000004 0.00019900000000000001 
	70.847499999999997 -4.0265000000000004 9.8999999999999994e-005 
	94.333800000000011 -4.0265000000000004 9.8999999999999994e-005 
	113.66022000000001 -4.0265000000000004 9.8999999999999994e-005 
	132.43565000000001 -4.0265000000000004 9.8999999999999994e-005 
	134.10381999999998 -4.0265000000000004 9.8999999999999994e-005 
	139.30262999999999 -3.8959999999999999 9.8999999999999994e-005 
	150.44914 -2.3227000000000002 9.8999999999999994e-005 
	164.66554000000002 -0.78115000000000012 -9.9999999999999995e-007 
	173.08525 -0.2157 -9.9999999999999995e-007 
	182.43073000000001 -0.067882999999999999 -9.9999999999999995e-007 
	198.305823 -0.054258000000000001 -9.9999999999999995e-007 
	201.0596219 -0.01 -9.9999999999999995e-007 
	202.58153823373254 -0.00059999999999999995 0.51860223658263871 
	202.58153823373254 0 0.51860223658263871 
	0 -0.38638 8.2509440000000023 
	11.679100000000005 -0.42453999999999997 6.4800990000000001 
	21.902500000000003 -0.44694 4.5037989999999999 
	31.459699999999998 -0.45469999999999999 2.6723979999999998 
	37.569999999999993 -0.45986700000000003 1.6757310000000001 
	41.305900000000008 -0.47159299999999998 1.2471399999999999 
	45.041899999999998 -0.48332000000000008 0.81854899999999997 
	49.458699999999993 -0.50419000000000025 0.45969900000000002 
	54.878800000000012 -0.55400000000000005 0.14449899999999999 
	59.907100000000014 -5.5788000000000002 9.8999999999999994e-005 
	65.527800000000013 -6.8859000000000004 0.00019900000000000001 
	70.847499999999997 -6.8859000000000004 9.8999999999999994e-005 
	94.333800000000011 -6.8859000000000004 9.8999999999999994e-005 
	113.66022000000001 -6.8859000000000004 9.8999999999999994e-005 
	132.43565000000001 -6.8859000000000004 9.8999999999999994e-005 
	134.10381999999998 -6.8859000000000004 9.8999999999999994e-005 
	139.30262999999999 -7.1364000000000001 9.8999999999999994e-005 
	150.44914 -3.4060999999999999 9.8999999999999994e-005 
	164.66554000000002 -1.1717 -9.9999999999999995e-007 
	173.08525 -0.32355 -9.9999999999999995e-007 
	182.43073000000001 -0.10181999999999999 -9.9999999999999995e-007 
	198.305823 -0.081387000000000001 -9.9999999999999995e-007 
	201.0596219 -0.029999999999999999 -9.9999999999999995e-007 
	202.5818222 -0.00089999999999999976 0.51869900000000024 
	202.5818222 0 0.51869900000000024 
	0 -0.88638000000000006 8.2629040000000007 
	11.679100000000005 -0.84821000000000013 6.5153980000000002 
	21.902500000000003 -0.82579999999999987 4.4975990000000001 
	31.459699999999998 -1.0213000000000001 2.6687989999999999 
	37.569999999999993 -0.98255999999999999 1.6739980000000001 
	41.305900000000008 -1.2471779999999999 1.2459979999999999 
	45.041899999999998 -1.511795 0.817998 
	49.458699999999993 -2.0604 0.45939799999999997 
	54.88839999999999 -5.1500000000000004 0.21789900000000001 
	59.907100000000014 -8.2269000000000023 9.8999999999999994e-005 
	65.527800000000013 -9.4123000000000001 0.00019900000000000001 
	70.847499999999997 -9.4123000000000001 9.8999999999999994e-005 
	94.333800000000011 -9.4123000000000001 9.8999999999999994e-005 
	113.66022000000001 -9.4123000000000001 9.8999999999999994e-005 
	132.43565000000001 -9.4123000000000001 9.8999999999999994e-005 
	134.10381999999998 -9.4123000000000001 9.8999999999999994e-005 
	139.30262999999999 -9.6828000000000021 9.8999999999999994e-005 
	150.44914 -6.1433999999999997 9.8999999999999994e-005 
	164.66554000000002 -2.7660999999999998 -9.9999999999999995e-007 
	173.08525 -1.9759 -9.9999999999999995e-007 
	182.44172 -0.76365000000000016 -9.9999999999999995e-007 
	192.690259 -0.70638000000000012 -9.9999999999999995e-007 
	201.08760599999999 -1.0882000000000001 -9.9999999999999995e-007 
	202.5818222 -0.27281 0.51869900000000024 
	202.58210644699966 0 0.51879493561996792 
	0 -4.2942 8.3881620000000012 
	11.679100000000005 -4.3400999999999996 6.583799 
	21.902500000000003 -4.371900000000001 4.583699000000002 
	31.459699999999998 -4.4768999999999997 2.7674989999999999 
	37.569999999999993 -5.284567 1.854498 
	41.298599999999993 -6.0569329999999999 1.407573 
	45.027199999999993 -6.8292999999999999 0.96064899999999986 
	49.429300000000012 -7.9702000000000002 0.52329899999999985 
	54.88839999999999 -9.4598999999999993 0.55619799999999997 
	59.907100000000014 -10.942 0.59829900000000003 
	65.527800000000013 -12.222 0.66279900000000003 
	70.847499999999997 -12.222 0.66259900000000005 
	94.333800000000011 -12.222 0.66259900000000005 
	113.66022000000001 -12.222 0.66259900000000005 
	132.43565000000001 -12.222 0.66259900000000005 
	134.10381999999998 -12.222 0.66249800000000014 
	139.30262999999999 -12.442 0.60909800000000003 
	150.44914 -9.7667999999999999 0.45479800000000009 
	164.66554000000002 -5.6828000000000003 0.41209800000000002 
	173.08525 -3.9424000000000001 0.49499900000000008 
	182.46151 -1.6100000000000001 0.67849800000000005 
	192.690259 -2.1454 0.56889900000000004 
	201.07075610000001 -1.8836999999999999 0.92449899999999996 
	204.766953 -1.2664 1.2561979999999999 
	204.766953 0 1.2561979999999999 
	0 -7.9073000000000002 8.8877439999999996 
	11.679100000000005 -7.9960000000000004 7.0193380000000012 
	21.902500000000003 -8.4192 5.4637989999999999 
	31.459699999999998 -9.0365000000000002 3.5849989999999998 
	37.569999999999993 -9.8508330000000015 2.9803320000000002 
	41.308400000000006 -10.389419999999999 2.6868910000000001 
	45.04679999999999 -10.928000000000001 2.3934489999999999 
	49.468500000000006 -11.598000000000001 2.1088990000000001 
	54.878800000000012 -12.595000000000001 2.4166979999999998 
	59.907100000000014 -13.51 2.7447979999999998 
	65.527800000000013 -14 3.1444990000000002 
	70.847499999999997 -14 3.1444990000000002 
	94.333800000000011 -14 3.1444990000000002 
	113.66022000000001 -14 3.1444990000000002 
	132.43565000000001 -14 3.1444990000000002 
	134.10381999999998 -14 3.1444990000000002 
	139.30262999999999 -13.800000000000001 3.1444990000000002 
	150.44914 -12.352 2.7237990000000001 
	164.66554000000002 -7.8624000000000001 2.3852989999999998 
	173.08525 -5.4919000000000002 2.4859990000000001 
	182.46151 -2.1699999999999999 2.5036990000000001 
	192.69037399999999 -2.3132000000000001 3.1525979999999998 
	201.07075610000001 -2.2113999999999998 3.2029990000000002 
	204.766953 -1.3077000000000001 3.1761979999999999 
	204.766953 0 3.1761979999999999 
	0 -11.273 9.9704619999999995 
	11.679100000000005 -11.172000000000001 8.2549089999999996 
	21.902500000000003 -11.423 6.9037990000000002 
	31.459699999999998 -11.897 5.321599 
	37.569999999999993 -12.306330000000001 4.832465 
	41.305900000000008 -12.596170000000001 4.7092309999999999 
	45.041899999999998 -12.885999999999999 4.585998 
	49.458699999999993 -13.260999999999999 4.584098 
	54.878800000000012 -13.632999999999999 4.7160989999999998 
	59.907100000000014 -13.917999999999999 4.8541990000000013 
	65.527800000000013 -14 5.1021989999999997 
	70.847499999999997 -14 5.1021989999999997 
	94.333800000000011 -14 5.1021989999999997 
	113.66022000000001 -14 5.1021989999999997 
	132.43565000000001 -14 5.1021989999999997 
	134.10381999999998 -14 5.1021989999999997 
	139.30262999999999 -13.936 5.1021989999999997 
	150.44914 -13.036 4.4901980000000004 
	164.66554000000002 -8.8455999999999992 3.8992990000000001 
	173.08525 -6.1059999999999999 4.2340980000000004 
	182.53408000000002 -3.0769000000000002 4.5333990000000002 
	192.74240600000002 -0.43591999999999997 4.5332990000000004 
	196.798259 -0.21611 4.5865989999999996 
	198.94117299999999 -0.18137 4.6750299999999996 
	198.94117299999999 0 4.6750299999999996 
	0 -12.925000000000001 11.59182 
	11.679100000000005 -12.903 10.0968 
	21.902500000000003 -13.113 8.5186090000000014 
	31.459699999999998 -13.411 7.5719380000000003 
	37.569999999999993 -13.593669999999999 7.1043120000000002 
	41.305900000000008 -13.69308 6.8904799999999993 
	45.041899999999998 -13.7925 6.6766490000000003 
	49.458699999999993 -13.9 6.482799 
	54.878800000000012 -13.952999999999999 6.4257980000000012 
	59.907100000000014 -14 6.3682980000000011 
	65.527800000000013 -14 6.5442990000000014 
	70.847499999999997 -14 6.5442990000000014 
	94.333800000000011 -14 6.5442990000000014 
	113.66022000000001 -14 6.5442990000000014 
	132.43565000000001 -14 6.5442990000000014 
	134.10381999999998 -14 6.5442990000000014 
	139.30262999999999 -13.936 6.5442990000000014 
	150.44914 -13.348000000000001 6.0156989999999997 
	164.66554000000002 -9.4883000000000006 5.505199000000002 
	173.08525 -6.4051000000000009 5.505199000000002 
	182.53408000000002 -3.2486999999999999 5.5495990000000006 
	192.802798 -0.67137999999999998 4.8147989999999998 
	196.43590499999999 -0.28000000000000003 4.8117989999999997 
	199.12263999999999 -0.18137 4.9029639999999999 
	199.12263999999999 0 4.9029639999999999 
	0 -13.558999999999999 13.307930000000001 
	11.679100000000005 -13.907999999999999 11.977399999999999 
	21.902500000000003 -14 10.901899999999999 
	31.459699999999998 -14 10.2285 
	37.569999999999993 -14 9.887499 
	41.305900000000008 -14 9.7848240000000004 
	45.041899999999998 -14 9.6821490000000008 
	49.458699999999993 -14 9.6472979999999993 
	54.878800000000012 -14 9.6964989999999993 
	59.916600000000017 -14 9.7454990000000006 
	65.527800000000013 -14 9.8787990000000008 
	70.844799999999992 -14 9.8787990000000008 
	94.333800000000011 -14 9.8787990000000008 
	113.66022000000001 -14 9.8787990000000008 
	132.43565000000001 -14 9.8787990000000008 
	134.10210000000001 -14 9.8787990000000008 
	139.30351000000002 -14 9.8787990000000008 
	150.44914 -14 9.5479990000000026 
	164.66554000000002 -10.369999999999999 9.2177989999999994 
	173.08525 -7.7032999999999996 9.2237989999999996 
	182.43073000000001 -4.4196999999999997 9.2177989999999994 
	192.69037399999999 -1.2790999999999999 9.2177989999999994 
	197.24012300000001 -0.52500000000000002 9.2177989999999994 
	202.625969 -0.20682 9.3033999999999999 
	202.625969 0 9.3033999999999999 
	0 -13.555999999999999 15.157439999999999 
	11.679100000000005 -14 14.609999999999999 
	21.902500000000003 -14 14.44 
	31.459699999999998 -14 14.3858 
	37.569999999999993 -14 14.12426 
	41.305900000000008 -14 14.042809999999999 
	45.041899999999998 -14 13.961349999999999 
	49.458699999999993 -14 13.9292 
	54.878800000000012 -14 13.935700000000001 
	59.916600000000017 -14 13.942 
	65.527800000000013 -14 13.9869 
	70.844799999999992 -14 13.9869 
	94.333800000000011 -14 13.9869 
	113.66022000000001 -14 13.9869 
	132.43565000000001 -14 13.9869 
	134.10210000000001 -14 13.9869 
	139.30351000000002 -14 13.9869 
	150.44723999999999 -13.997999999999999 13.874700000000001 
	164.66554000000002 -12.09151 13.77833 
	173.08525 -10.65498 13.74456 
	182.43073000000001 -8.7792539999999999 13.747859999999999 
	192.69043500000001 -6.3617059999999999 13.64729 
	198.86820700000001 -4.9781319999999996 13.643599999999999 
	206.147391 -2.0335580000000002 13.726559999999999 
	206.147391 0 13.726559999999999 
	0 -13.555999999999999 21.200569999999999 
	11.679100000000005 -14 20.854099999999999 
	21.902500000000003 -14 20.52543 
	31.459699999999998 -14 20.217189999999999 
	38.703699999999998 -14 19.976040000000001 
	42.732100000000003 -14 19.887619999999998 
	45.892200000000003 -14 19.841560000000001 
	49.458699999999993 -14 19.827649999999998 
	54.878800000000012 -14 19.806519999999999 
	59.916600000000017 -14 19.78631 
	65.527800000000013 -14 19.78631 
	70.844799999999992 -14 19.78631 
	94.333800000000011 -14 19.78631 
	113.66022000000001 -14 19.78631 
	132.43565000000001 -14 19.78631 
	134.10210000000001 -14 19.78631 
	139.30351000000002 -14 19.78631 
	150.44723999999999 -13.971 19.722919999999998 
	164.66554000000002 -13.583 19.692830000000001 
	173.08525 -13.300000000000001 19.692139999999998 
	182.56699 -12.64977 19.497679999999999 
	193.023076 -11.030480000000001 19.589559999999999 
	200.78043300000002 -9.0664510000000007 19.610700000000001 
	209.82229799999999 -3.7083689999999998 19.69706 
	209.83856399999999 0 19.725490000000001 
	0 -13.555999999999999 22.20776 
	11.679100000000005 -14 22.079229999999999 
	21.902500000000003 -14 21.949680000000001 
	31.459699999999998 -14 21.827719999999999 
	39.608599999999996 -14 21.735489999999999 
	43.841100000000012 -14 21.696149999999999 
	46.570899999999995 -14 21.6816 
	49.458699999999993 -14 21.673839999999998 
	54.878800000000012 -14 21.665569999999999 
	59.916600000000017 -14 21.657299999999999 
	65.527800000000013 -14 21.657299999999999 
	70.844799999999992 -14 21.657299999999999 
	94.333800000000011 -14 21.657299999999999 
	113.66022000000001 -14 21.657299999999999 
	132.43565000000001 -14 21.657299999999999 
	134.10210000000001 -14 21.657299999999999 
	139.30351000000002 -14 21.657299999999999 
	150.44723999999999 -13.981 21.508929999999999 
	164.66554000000002 -13.643000000000001 21.552569999999999 
	173.08525 -13.443 21.52684 
	182.69567000000001 -12.8573 21.344940000000001 
	193.32384300000001 -11.21177 21.441759999999999 
	201.20326439999999 -9.2135750000000005 21.439730000000001 
	210.37995900000001 -3.7672889999999999 21.489280000000001 
	210.40536299999999 0 21.52739 
	0 -13.555999999999999 24.971309999999999 
	11.679100000000005 -14 24.4298 
	21.893100000000004 -14 23.93975 
	31.456500000000005 -14 23.489039999999999 
	40.410300000000007 -14 23.067049999999998 
	44.561700000000002 -14 22.871400000000001 
	47.008299999999991 -14 22.871400000000001 
	49.458699999999993 -14 22.871400000000001 
	54.878800000000012 -14 22.871400000000001 
	59.916600000000017 -14 22.871400000000001 
	65.527800000000013 -14 22.871400000000001 
	70.844799999999992 -14 22.871400000000001 
	94.333800000000011 -14 22.871400000000001 
	113.66022000000001 -14 22.871400000000001 
	132.43565000000001 -14 22.871400000000001 
	134.10210000000001 -14 22.871400000000001 
	139.30351000000002 -14 22.871400000000001 
	150.44723999999999 -13.989000000000001 22.862210000000001 
	164.66554000000002 -13.686 22.862210000000001 
	173.08525 -13.545999999999999 22.862210000000001 
	182.80176 -13.0284 22.867999999999999 
	193.557321 -11.352510000000001 22.879570000000001 
	201.53699951999999 -9.3297000000000008 22.883369999999999 
	210.81393800000001 -3.813142 22.884 
	210.832165 0 22.884229999999999 
	0 
	F 1 F 0 F 1 F 0 } I I I I #
integer_attrib-name_attrib-gen-attrib $-1 $-1 $-1 $6 copy keep_kept ignore 5 JSLGF 2 #
face $14 $15 $16 $3 $-1 $17 forward double out #
loop $-1 $-1 $18 $6 #
spline-surface $-1 forward { exactsur nubs 3 3 open open none none 15 9 
	0 3 0.071428571428571425 1 0.14285714285714279 1 0.2142857142857143 3 0.2857142857142857 3 
	0.35714285714285721 3 0.42857142857142849 3 0.5 1 0.5714285714285714 1 0.6428571428571429 1 
	0.7142857142857143 1 0.7857142857142857 1 0.8571428571428571 1 0.9285714285714286 1 1 3 
	0 3 0.125 2 0.25 1 0.375 1 0.5 1 
	0.625 1 0.75 1 0.875 2 1 3 
	0 0 8.2509440000000023 
	11.679100000000005 0 6.4800990000000001 
	21.902500000000003 0 4.5037989999999999 
	31.459699999999998 0 2.6723979999999998 
	37.569999999999993 0 1.6757310000000001 
	41.305900000000008 0 1.2471399999999999 
	45.041899999999998 0 0.81854899999999997 
	49.458699999999993 0 0.45969900000000002 
	54.878800000000012 0 0.14449899999999999 
	59.907100000000014 0 0.00019900000000001229 
	65.527800000000013 0 0.00019899999999998391 
	70.847499999999997 0 9.8999999999999994e-005 
	94.333800000000011 0 9.8999999999999994e-005 
	113.66022000000001 0 9.8999999999999994e-005 
	132.43565000000001 0 9.8999999999999994e-005 
	134.10381999999998 0 9.8999999999999994e-005 
	139.30262999999999 0 9.8999999999999994e-005 
	150.44914 0 9.8999999999999994e-005 
	164.66554000000002 0 -9.9999999999999995e-007 
	173.08525 0 -9.9999999999999995e-007 
	182.43073000000001 0 -9.9999999999999995e-007 
	198.305823 0 -1.000000000000001e-006 
	201.0596219 0 -9.9999999999999995e-007 
	201.0596219 0 -9.9999999999999995e-007 
	202.5809703011976 0 0.51840870974791609 
	0 0.25758999999999999 8.2509440000000023 
	11.679100000000005 0.28303 6.4800990000000001 
	21.902500000000003 0.29797000000000001 4.5037989999999999 
	31.459699999999998 0.29931999999999997 2.6723979999999998 
	37.569999999999993 0.30023300000000003 1.6757310000000001 
	41.305900000000008 0.30108200000000002 1.2471399999999999 
	45.041899999999998 0.30192999999999992 0.81854899999999997 
	49.458699999999993 0.30317 0.45969900000000002 
	54.878800000000012 0.30592999999999998 0.14449899999999999 
	59.907100000000014 3.0127000000000002 9.8999999999999994e-005 
	65.527800000000013 4.0265000000000004 0.00019900000000000001 
	70.847499999999997 4.0265000000000004 9.8999999999999994e-005 
	94.333800000000011 4.0265000000000004 9.8999999999999994e-005 
	113.66022000000001 4.0265000000000004 9.8999999999999994e-005 
	132.43565000000001 4.0265000000000004 9.8999999999999994e-005 
	134.10381999999998 4.0265000000000004 9.8999999999999994e-005 
	139.30262999999999 3.8959999999999999 9.8999999999999994e-005 
	150.44914 2.3227000000000002 9.8999999999999994e-005 
	164.66554000000002 0.78115000000000012 -9.9999999999999995e-007 
	173.08525 0.2157 -9.9999999999999995e-007 
	182.43073000000001 0.067882999999999999 -9.9999999999999995e-007 
	198.305823 0.054258000000000001 -9.9999999999999995e-007 
	201.0596219 0.01 -9.9999999999999995e-007 
	202.58153823373254 0.00059999999999999995 0.51860223658263871 
	202.58153823373254 0 0.51860223658263871 
	0 0.38638 8.2509440000000023 
	11.679100000000005 0.42453999999999997 6.4800990000000001 
	21.902500000000003 0.44694 4.5037989999999999 
	31.459699999999998 0.45469999999999999 2.6723979999999998 
	37.569999999999993 0.45986700000000003 1.6757310000000001 
	41.305900000000008 0.47159299999999998 1.2471399999999999 
	45.041899999999998 0.48332000000000008 0.81854899999999997 
	49.458699999999993 0.50419000000000025 0.45969900000000002 
	54.878800000000012 0.55400000000000005 0.14449899999999999 
	59.907100000000014 5.5788000000000002 9.8999999999999994e-005 
	65.527800000000013 6.8859000000000004 0.00019900000000000001 
	70.847499999999997 6.8859000000000004 9.8999999999999994e-005 
	94.333800000000011 6.8859000000000004 9.8999999999999994e-005 
	113.66022000000001 6.8859000000000004 9.8999999999999994e-005 
	132.43565000000001 6.8859000000000004 9.8999999999999994e-005 
	134.10381999999998 6.8859000000000004 9.8999999999999994e-005 
	139.30262999999999 7.1364000000000001 9.8999999999999994e-005 
	150.44914 3.4060999999999999 9.8999999999999994e-005 
	164.66554000000002 1.1717 -9.9999999999999995e-007 
	173.08525 0.32355 -9.9999999999999995e-007 
	182.43073000000001 0.10181999999999999 -9.9999999999999995e-007 
	198.305823 0.081387000000000001 -9.9999999999999995e-007 
	201.0596219 0.029999999999999999 -9.9999999999999995e-007 
	202.5818222 0.00089999999999999976 0.51869900000000024 
	202.5818222 0 0.51869900000000024 
	0 0.88638000000000006 8.2629040000000007 
	11.679100000000005 0.84821000000000013 6.5153980000000002 
	21.902500000000003 0.82579999999999987 4.4975990000000001 
	31.459699999999998 1.0213000000000001 2.6687989999999999 
	37.569999999999993 0.98255999999999999 1.6739980000000001 
	41.305900000000008 1.2471779999999999 1.2459979999999999 
	45.041899999999998 1.511795 0.817998 
	49.458699999999993 2.0604 0.45939799999999997 
	54.88839999999999 5.1500000000000004 0.21789900000000001 
	59.907100000000014 8.2269000000000023 9.8999999999999994e-005 
	65.527800000000013 9.4123000000000001 0.00019900000000000001 
	70.847499999999997 9.4123000000000001 9.8999999999999994e-005 
	94.333800000000011 9.4123000000000001 9.8999999999999994e-005 
	113.66022000000001 9.4123000000000001 9.8999999999999994e-005 
	132.43565000000001 9.4123000000000001 9.8999999999999994e-005 
	134.10381999999998 9.4123000000000001 9.8999999999999994e-005 
	139.30262999999999 9.6828000000000021 9.8999999999999994e-005 
	150.44914 6.1433999999999997 9.8999999999999994e-005 
	164.66554000000002 2.7660999999999998 -9.9999999999999995e-007 
	173.08525 1.9759 -9.9999999999999995e-007 
	182.44172 0.76365000000000016 -9.9999999999999995e-007 
	192.690259 0.70638000000000012 -9.9999999999999995e-007 
	201.08760599999999 1.0882000000000001 -9.9999999999999995e-007 
	202.5818222 0.27281 0.51869900000000024 
	202.58210644699966 0 0.51879493561996792 
	0 4.2942 8.3881620000000012 
	11.679100000000005 4.3400999999999996 6.583799 
	21.902500000000003 4.371900000000001 4.583699000000002 
	31.459699999999998 4.4768999999999997 2.7674989999999999 
	37.569999999999993 5.284567 1.854498 
	41.298599999999993 6.0569329999999999 1.407573 
	45.027199999999993 6.8292999999999999 0.96064899999999986 
	49.429300000000012 7.9702000000000002 0.52329899999999985 
	54.88839999999999 9.4598999999999993 0.55619799999999997 
	59.907100000000014 10.942 0.59829900000000003 
	65.527800000000013 12.222 0.66279900000000003 
	70.847499999999997 12.222 0.66259900000000005 
	94.333800000000011 12.222 0.66259900000000005 
	113.66022000000001 12.222 0.66259900000000005 
	132.43565000000001 12.222 0.66259900000000005 
	134.10381999999998 12.222 0.66249800000000014 
	139.30262999999999 12.442 0.60909800000000003 
	150.44914 9.7667999999999999 0.45479800000000009 
	164.66554000000002 5.6828000000000003 0.41209800000000002 
	173.08525 3.9424000000000001 0.49499900000000008 
	182.46151 1.6100000000000001 0.67849800000000005 
	192.690259 2.1454 0.56889900000000004 
	201.07075610000001 1.8836999999999999 0.92449899999999996 
	204.766953 1.2664 1.2561979999999999 
	204.766953 0 1.2561979999999999 
	0 7.9073000000000002 8.8877439999999996 
	11.679100000000005 7.9960000000000004 7.0193380000000012 
	21.902500000000003 8.4192 5.4637989999999999 
	31.459699999999998 9.0365000000000002 3.5849989999999998 
	37.569999999999993 9.8508330000000015 2.9803320000000002 
	41.308400000000006 10.389419999999999 2.6868910000000001 
	45.04679999999999 10.928000000000001 2.3934489999999999 
	49.468500000000006 11.598000000000001 2.1088990000000001 
	54.878800000000012 12.595000000000001 2.4166979999999998 
	59.907100000000014 13.51 2.7447979999999998 
	65.527800000000013 14 3.1444990000000002 
	70.847499999999997 14 3.1444990000000002 
	94.333800000000011 14 3.1444990000000002 
	113.66022000000001 14 3.1444990000000002 
	132.43565000000001 14 3.1444990000000002 
	134.10381999999998 14 3.1444990000000002 
	139.30262999999999 13.800000000000001 3.1444990000000002 
	150.44914 12.352 2.7237990000000001 
	164.66554000000002 7.8624000000000001 2.3852989999999998 
	173.08525 5.4919000000000002 2.4859990000000001 
	182.46151 2.1699999999999999 2.5036990000000001 
	192.69037399999999 2.3132000000000001 3.1525979999999998 
	201.07075610000001 2.2113999999999998 3.2029990000000002 
	204.766953 1.3077000000000001 3.1761979999999999 
	204.766953 0 3.1761979999999999 
	0 11.273 9.9704619999999995 
	11.679100000000005 11.172000000000001 8.2549089999999996 
	21.902500000000003 11.423 6.9037990000000002 
	31.459699999999998 11.897 5.321599 
	37.569999999999993 12.306330000000001 4.832465 
	41.305900000000008 12.596170000000001 4.7092309999999999 
	45.041899999999998 12.885999999999999 4.585998 
	49.458699999999993 13.260999999999999 4.584098 
	54.878800000000012 13.632999999999999 4.7160989999999998 
	59.907100000000014 13.917999999999999 4.8541990000000013 
	65.527800000000013 14 5.1021989999999997 
	70.847499999999997 14 5.1021989999999997 
	94.333800000000011 14 5.1021989999999997 
	113.66022000000001 14 5.1021989999999997 
	132.43565000000001 14 5.1021989999999997 
	134.10381999999998 14 5.1021989999999997 
	139.30262999999999 13.936 5.1021989999999997 
	150.44914 13.036 4.4901980000000004 
	164.66554000000002 8.8455999999999992 3.8992990000000001 
	173.08525 6.1059999999999999 4.2340980000000004 
	182.53408000000002 3.0769000000000002 4.5333990000000002 
	192.74240600000002 0.43591999999999997 4.5332990000000004 
	196.798259 0.21611 4.5865989999999996 
	198.94117299999999 0.18137 4.6750299999999996 
	198.94117299999999 0 4.6750299999999996 
	0 12.925000000000001 11.59182 
	11.679100000000005 12.903 10.0968 
	21.902500000000003 13.113 8.5186090000000014 
	31.459699999999998 13.411 7.5719380000000003 
	37.569999999999993 13.593669999999999 7.1043120000000002 
	41.305900000000008 13.69308 6.8904799999999993 
	45.041899999999998 13.7925 6.6766490000000003 
	49.458699999999993 13.9 6.482799 
	54.878800000000012 13.952999999999999 6.4257980000000012 
	59.907100000000014 14 6.3682980000000011 
	65.527800000000013 14 6.5442990000000014 
	70.847499999999997 14 6.5442990000000014 
	94.333800000000011 14 6.5442990000000014 
	113.66022000000001 14 6.5442990000000014 
	132.43565000000001 14 6.5442990000000014 
	134.10381999999998 14 6.5442990000000014 
	139.30262999999999 13.936 6.5442990000000014 
	150.44914 13.348000000000001 6.0156989999999997 
	164.66554000000002 9.4883000000000006 5.505199000000002 
	173.08525 6.4051000000000009 5.505199000000002 
	182.53408000000002 3.2486999999999999 5.5495990000000006 
	192.802798 0.67137999999999998 4.8147989999999998 
	196.43590499999999 0.28000000000000003 4.8117989999999997 
	199.12263999999999 0.18137 4.9029639999999999 
	199.12263999999999 0 4.9029639999999999 
	0 13.558999999999999 13.307930000000001 
	11.679100000000005 13.907999999999999 11.977399999999999 
	21.902500000000003 14 10.901899999999999 
	31.459699999999998 14 10.2285 
	37.569999999999993 14 9.887499 
	41.305900000000008 14 9.7848240000000004 
	45.041899999999998 14 9.6821490000000008 
	49.458699999999993 14 9.6472979999999993 
	54.878800000000012 14 9.6964989999999993 
	59.916600000000017 14 9.7454990000000006 
	65.527800000000013 14 9.8787990000000008 
	70.844799999999992 14 9.8787990000000008 
	94.333800000000011 14 9.8787990000000008 
	113.66022000000001 14 9.8787990000000008 
	132.43565000000001 14 9.8787990000000008 
	134.10210000000001 14 9.8787990000000008 
	139.30351000000002 14 9.8787990000000008 
	150.44914 14 9.5479990000000026 
	164.66554000000002 10.369999999999999 9.2177989999999994 
	173.08525 7.7032999999999996 9.2237989999999996 
	182.43073000000001 4.4196999999999997 9.2177989999999994 
	192.69037399999999 1.2790999999999999 9.2177989999999994 
	197.24012300000001 0.52500000000000002 9.2177989999999994 
	202.625969 0.20682 9.3033999999999999 
	202.625969 0 9.3033999999999999 
	0 13.555999999999999 15.157439999999999 
	11.679100000000005 14 14.609999999999999 
	21.902500000000003 14 14.44 
	31.459699999999998 14 14.3858 
	37.569999999999993 14 14.12426 
	41.305900000000008 14 14.042809999999999 
	45.041899999999998 14 13.961349999999999 
	49.458699999999993 14 13.9292 
	54.878800000000012 14 13.935700000000001 
	59.916600000000017 14 13.942 
	65.527800000000013 14 13.9869 
	70.844799999999992 14 13.9869 
	94.333800000000011 14 13.9869 
	113.66022000000001 14 13.9869 
	132.43565000000001 14 13.9869 
	134.10210000000001 14 13.9869 
	139.30351000000002 14 13.9869 
	150.44723999999999 13.997999999999999 13.874700000000001 
	164.66554000000002 12.09151 13.77833 
	173.08525 10.65498 13.74456 
	182.43073000000001 8.7792539999999999 13.747859999999999 
	192.69043500000001 6.3617059999999999 13.64729 
	198.86820700000001 4.9781319999999996 13.643599999999999 
	206.147391 2.0335580000000002 13.726559999999999 
	206.147391 0 13.726559999999999 
	0 13.555999999999999 21.200569999999999 
	11.679100000000005 14 20.854099999999999 
	21.902500000000003 14 20.52543 
	31.459699999999998 14 20.217189999999999 
	38.703699999999998 14 19.976040000000001 
	42.732100000000003 14 19.887619999999998 
	45.892200000000003 14 19.841560000000001 
	49.458699999999993 14 19.827649999999998 
	54.878800000000012 14 19.806519999999999 
	59.916600000000017 14 19.78631 
	65.527800000000013 14 19.78631 
	70.844799999999992 14 19.78631 
	94.333800000000011 14 19.78631 
	113.66022000000001 14 19.78631 
	132.43565000000001 14 19.78631 
	134.10210000000001 14 19.78631 
	139.30351000000002 14 19.78631 
	150.44723999999999 13.971 19.722919999999998 
	164.66554000000002 13.583 19.692830000000001 
	173.08525 13.300000000000001 19.692139999999998 
	182.56699 12.64977 19.497679999999999 
	193.023076 11.030480000000001 19.589559999999999 
	200.78043300000002 9.0664510000000007 19.610700000000001 
	209.82229799999999 3.7083689999999998 19.69706 
	209.83856399999999 0 19.725490000000001 
	0 13.555999999999999 22.20776 
	11.679100000000005 14 22.079229999999999 
	21.902500000000003 14 21.949680000000001 
	31.459699999999998 14 21.827719999999999 
	39.608599999999996 14 21.735489999999999 
	43.841100000000012 14 21.696149999999999 
	46.570899999999995 14 21.6816 
	49.458699999999993 14 21.673839999999998 
	54.878800000000012 14 21.665569999999999 
	59.916600000000017 14 21.657299999999999 
	65.527800000000013 14 21.657299999999999 
	70.844799999999992 14 21.657299999999999 
	94.333800000000011 14 21.657299999999999 
	113.66022000000001 14 21.657299999999999 
	132.43565000000001 14 21.657299999999999 
	134.10210000000001 14 21.657299999999999 
	139.30351000000002 14 21.657299999999999 
	150.44723999999999 13.981 21.508929999999999 
	164.66554000000002 13.643000000000001 21.552569999999999 
	173.08525 13.443 21.52684 
	182.69567000000001 12.8573 21.344940000000001 
	193.32384300000001 11.21177 21.441759999999999 
	201.20326439999999 9.2135750000000005 21.439730000000001 
	210.37995900000001 3.7672889999999999 21.489280000000001 
	210.40536299999999 0 21.52739 
	0 13.555999999999999 24.971309999999999 
	11.679100000000005 14 24.4298 
	21.893100000000004 14 23.93975 
	31.456500000000005 14 23.489039999999999 
	40.410300000000007 14 23.067049999999998 
	44.561700000000002 14 22.871400000000001 
	47.008299999999991 14 22.871400000000001 
	49.458699999999993 14 22.871400000000001 
	54.878800000000012 14 22.871400000000001 
	59.916600000000017 14 22.871400000000001 
	65.527800000000013 14 22.871400000000001 
	70.844799999999992 14 22.871400000000001 
	94.333800000000011 14 22.871400000000001 
	113.66022000000001 14 22.871400000000001 
	132.43565000000001 14 22.871400000000001 
	134.10210000000001 14 22.871400000000001 
	139.30351000000002 14 22.871400000000001 
	150.44723999999999 13.989000000000001 22.862210000000001 
	164.66554000000002 13.686 22.862210000000001 
	173.08525 13.545999999999999 22.862210000000001 
	182.80176 13.0284 22.867999999999999 
	193.557321 11.352510000000001 22.879570000000001 
	201.53699951999999 9.3297000000000008 22.883369999999999 
	210.81393800000001 3.813142 22.884 
	210.832165 0 22.884229999999999 
	0 
	F 1 F 0 F 1 F 0 } I I I I #
coedge $-1 $19 $20 $18 $21 1 $7 $22 #
integer_attrib-name_attrib-gen-attrib $-1 $-1 $-1 $10 copy keep_kept ignore 5 JSLGF 4 #
face $23 $-1 $24 $3 $-1 $25 forward double out #
loop $-1 $-1 $26 $10 #
plane-surface $-1 0 100 -100 1 0 0 0 0 -1 reverse_v I I I I #
coedge $-1 $27 $28 $13 $21 0 $11 $29 #
coedge $-1 $30 $13 $31 $32 1 $7 $33 #
coedge $-1 $13 $30 $27 $34 1 $7 $35 #
edge $-1 $36 $37 $18 $38 forward #
pcurve $-1 0 reversed { exppc nubs 1 open 2 
	0 1 1 1 
	0 0 
	1 0 
	0 
	spline reversed { ref 0 } I I I I 
	} 0 0 #
integer_attrib-name_attrib-gen-attrib $-1 $-1 $-1 $15 copy keep_kept ignore 5 JSLGF 4 #
loop $-1 $-1 $39 $15 #
plane-surface $-1 0 -100 -100 1 0 0 0 0 -1 forward_v I I I I #
coedge $-1 $40 $31 $39 $41 0 $16 $-1 #
coedge $-1 $42 $18 $20 $34 0 $11 $43 #
coedge $-1 $18 $42 $44 $45 0 $11 $46 #
pcurve $-1 0 forward { exppc nubs 1 open 2 
	0 1 1 1 
	0 0 
	1 0 
	0 
	spline forward { ref 1 } I I I I 
	} 0 0 #
coedge $-1 $20 $19 $-1 $47 0 $7 $48 #
coedge $-1 $26 $40 $19 $32 0 $16 $49 #
edge $-1 $50 $36 $31 $51 forward #
pcurve $-1 0 forward { exppc nubs 1 open 2 
	0 1 1 1 
	0 0 
	0 1 
	0 
	spline reversed { ref 0 } I I I I 
	} 0 0 #
edge $-1 $37 $52 $27 $53 forward #
pcurve $-1 0 reversed { exppc nubs 1 open 2 
	0 1 1 1 
	1 0 
	1 1 
	0 
	spline reversed { ref 0 } I I I I 
	} 0 0 #
vertex $-1 $41 $54 #
vertex $-1 $21 $55 #
intcurve-curve $-1 forward { exactcur nubs 3 open 15 
	0 3 0.071428571428571425 1 0.14285714285714279 1 0.2142857142857143 3 0.2857142857142857 3 
	0.35714285714285721 3 0.42857142857142849 3 0.5 1 0.5714285714285714 1 0.6428571428571429 1 
	0.7142857142857143 1 0.7857142857142857 1 0.8571428571428571 1 0.9285714285714286 1 1 3 
	
	0 0 8.2509440000000023 
	11.679100000000005 0 6.4800990000000001 
	21.902500000000003 0 4.5037989999999999 
	31.459699999999998 0 2.6723979999999998 
	37.569999999999993 0 1.6757310000000001 
	41.305900000000008 0 1.2471399999999999 
	45.041899999999998 0 0.81854899999999997 
	49.458699999999993 0 0.45969900000000002 
	54.878800000000012 0 0.14449899999999999 
	59.907100000000014 0 0.00019900000000001229 
	65.527800000000013 0 0.00019899999999998391 
	70.847499999999997 0 9.8999999999999994e-005 
	94.333800000000011 0 9.8999999999999994e-005 
	113.66022000000001 0 9.8999999999999994e-005 
	132.43565000000001 0 9.8999999999999994e-005 
	134.10381999999998 0 9.8999999999999994e-005 
	139.30262999999999 0 9.8999999999999994e-005 
	150.44914 0 9.8999999999999994e-005 
	164.66554000000002 0 -9.9999999999999995e-007 
	173.08525 0 -9.9999999999999995e-007 
	182.43073000000001 0 -9.9999999999999995e-007 
	198.305823 0 -1.000000000000001e-006 
	201.0596219 0 -9.9999999999999995e-007 
	201.0596219 0 -9.9999999999999995e-007 
	202.5809703011976 0 0.51840870974791609 
	0 
	spline forward { ref 0 } I I I I 
	null_surface 
	nubs 1 open 2 
	0 1 1 1 
	0 0 
	1 0 
	
	nullbs 
	I I F 1 F 0 } I I #
coedge $-1 $44 $56 $26 $41 1 $24 $-1 #
coedge $-1 $31 $26 $-1 $57 0 $16 $-1 #
edge $-1 $36 $58 $39 $59 forward #
coedge $-1 $28 $27 $-1 $60 1 $11 $61 #
pcurve $-1 0 forward { exppc nubs 1 open 2 
	0 1 1 1 
	1 0 
	1 1 
	0 
	spline forward { ref 1 } I I I I 
	} 0 0 #
coedge $-1 $56 $39 $28 $45 1 $24 $62 #
edge $-1 $63 $36 $44 $64 forward #
pcurve $-1 0 reversed { exppc nubs 1 open 2 
	0 1 1 1 
	0 0 
	0 1 
	0 
	spline forward { ref 1 } I I I I 
	} 0 0 #
edge $-1 $50 $52 $30 $65 forward #
pcurve $-1 1 $65 0 0 #
pcurve $-1 0 reversed { ref 4 } 0 0 #
vertex $-1 $32 $66 #
intcurve-curve $-1 reversed { parcur nubs 3 open 9 
	0 3 0.125 2 0.25 1 0.375 1 0.5 1 
	0.625 1 0.75 1 0.875 2 1 3 
	0 0 8.2509440000000023 
	0 -0.25758999999999999 8.2509440000000023 
	0 -0.38638 8.2509440000000023 
	0 -0.88638000000000006 8.2629040000000007 
	0 -4.2942 8.3881620000000012 
	0 -7.9073000000000002 8.8877439999999996 
	0 -11.273 9.9704619999999995 
	0 -12.925000000000001 11.59182 
	0 -13.558999999999999 13.307930000000001 
	0 -13.555999999999999 15.157439999999999 
	0 -13.555999999999999 21.200569999999999 
	0 -13.555999999999999 22.20776 
	0 -13.555999999999999 24.971309999999999 
	0 
	spline reversed { ref 0 } I I I I 
	null_surface 
	nubs 1 open 2 
	0 1 1 1 
	0 0 
	0 1 
	
	nullbs 
	I I surf1 } I I #
vertex $-1 $34 $67 #
intcurve-curve $-1 forward { exactcur nubs 3 open 9 
	0 3 0.125 2 0.25 1 0.375 1 0.5 1 
	0.625 1 0.75 1 0.875 2 1 3 
	202.5809703011976 0 0.51840870974791609 
	202.58153823373254 0 0.51860223658263871 
	202.5818222 0 0.51869900000000024 
	202.58210644699966 0 0.51879493561996792 
	204.766953 0 1.2561979999999999 
	204.766953 0 3.1761979999999999 
	198.94117299999999 0 4.6750299999999996 
	199.12263999999999 0 4.9029639999999999 
	202.625969 0 9.3033999999999999 
	206.147391 0 13.726559999999999 
	209.83856399999999 0 19.725490000000001 
	210.40536299999999 0 21.52739 
	210.832165 0 22.884229999999999 
	0 
	spline forward { ref 0 } I I I I 
	null_surface 
	nubs 1 open 2 
	0 1 1 1 
	1 0 
	1 1 
	
	nullbs 
	I I F 1 F 0 } I I #
point $-1 0 0 8.2509440000000023 #
point $-1 202.5809703011976 0 0.5184087097479162 #
coedge $-1 $39 $44 $-1 $68 1 $24 $-1 #
edge $-1 $58 $50 $40 $69 forward #
vertex $-1 $41 $70 #
straight-curve $-1 0 0 -100 0 0 1 I I #
edge $-1 $63 $52 $42 $71 forward #
pcurve $-1 -1 $71 0 0 #
pcurve $-1 0 forward { ref 8 } 0 0 #
vertex $-1 $45 $72 #
intcurve-curve $-1 reversed { parcur nubs 3 open 9 
	0 3 0.125 2 0.25 1 0.375 1 0.5 1 
	0.625 1 0.75 1 0.875 2 1 3 
	0 0 8.2509440000000023 
	0 0.25758999999999999 8.2509440000000023 
	0 0.38638 8.2509440000000023 
	0 0.88638000000000006 8.2629040000000007 
	0 4.2942 8.3881620000000012 
	0 7.9073000000000002 8.8877439999999996 
	0 11.273 9.9704619999999995 
	0 12.925000000000001 11.59182 
	0 13.558999999999999 13.307930000000001 
	0 13.555999999999999 15.157439999999999 
	0 13.555999999999999 21.200569999999999 
	0 13.555999999999999 22.20776 
	0 13.555999999999999 24.971309999999999 
	0 
	spline forward { ref 1 } I I I I 
	null_surface 
	nubs 1 open 2 
	0 1 1 1 
	0 0 
	0 1 
	
	nullbs 
	I I surf1 } I I #
intcurve-curve $-1 forward { exactcur nubs 3 open 15 
	0 3 0.071428571428571425 1 0.14285714285714279 1 0.2142857142857143 3 0.2857142857142857 3 
	0.35714285714285721 3 0.42857142857142849 3 0.5 1 0.5714285714285714 1 0.6428571428571429 1 
	0.7142857142857143 1 0.7857142857142857 1 0.8571428571428571 1 0.9285714285714286 1 1 3 
	
	0 -13.555999999999999 24.971309999999999 
	11.679100000000005 -14 24.4298 
	21.893100000000004 -14 23.93975 
	31.456500000000005 -14 23.489039999999999 
	40.410300000000007 -14 23.067049999999998 
	44.561700000000002 -14 22.871400000000001 
	47.008299999999991 -14 22.871400000000001 
	49.458699999999993 -14 22.871400000000001 
	54.878800000000012 -14 22.871400000000001 
	59.916600000000017 -14 22.871400000000001 
	65.527800000000013 -14 22.871400000000001 
	70.844799999999992 -14 22.871400000000001 
	94.333800000000011 -14 22.871400000000001 
	113.66022000000001 -14 22.871400000000001 
	132.43565000000001 -14 22.871400000000001 
	134.10210000000001 -14 22.871400000000001 
	139.30351000000002 -14 22.871400000000001 
	150.44723999999999 -13.989000000000001 22.862210000000001 
	164.66554000000002 -13.686 22.862210000000001 
	173.08525 -13.545999999999999 22.862210000000001 
	182.80176 -13.0284 22.867999999999999 
	193.557321 -11.352510000000001 22.879570000000001 
	201.53699951999999 -9.3297000000000008 22.883369999999999 
	210.81393800000001 -3.813142 22.884 
	210.832165 0 22.884229999999999 
	0 
	spline reversed { ref 0 } I I I I 
	null_surface 
	nubs 1 open 2 
	0 1 1 1 
	0 1 
	1 1 
	
	nullbs 
	I I F 1 F 0 } I I #
point $-1 0 -13.555999999999999 24.971309999999999 #
point $-1 210.832165 -4.4408920985006262e-016 22.884229999999999 #
edge $-1 $58 $63 $56 $73 forward #
straight-curve $-1 0 13.555999999999999 24.971309999999999 0 -1 0 I I #
point $-1 0 0 24.971309999999999 #
intcurve-curve $-1 forward { exactcur nubs 3 open 15 
	0 3 0.071428571428571425 1 0.14285714285714279 1 0.2142857142857143 3 0.2857142857142857 3 
	0.35714285714285721 3 0.42857142857142849 3 0.5 1 0.5714285714285714 1 0.6428571428571429 1 
	0.7142857142857143 1 0.7857142857142857 1 0.8571428571428571 1 0.9285714285714286 1 1 3 
	
	0 13.555999999999999 24.971309999999999 
	11.679100000000005 14 24.4298 
	21.893100000000004 14 23.93975 
	31.456500000000005 14 23.489039999999999 
	40.410300000000007 14 23.067049999999998 
	44.561700000000002 14 22.871400000000001 
	47.008299999999991 14 22.871400000000001 
	49.458699999999993 14 22.871400000000001 
	54.878800000000012 14 22.871400000000001 
	59.916600000000017 14 22.871400000000001 
	65.527800000000013 14 22.871400000000001 
	70.844799999999992 14 22.871400000000001 
	94.333800000000011 14 22.871400000000001 
	113.66022000000001 14 22.871400000000001 
	132.43565000000001 14 22.871400000000001 
	134.10210000000001 14 22.871400000000001 
	139.30351000000002 14 22.871400000000001 
	150.44723999999999 13.989000000000001 22.862210000000001 
	164.66554000000002 13.686 22.862210000000001 
	173.08525 13.545999999999999 22.862210000000001 
	182.80176 13.0284 22.867999999999999 
	193.557321 11.352510000000001 22.879570000000001 
	201.53699951999999 9.3297000000000008 22.883369999999999 
	210.81393800000001 3.813142 22.884 
	210.832165 0 22.884229999999999 
	0 
	spline forward { ref 1 } I I I I 
	null_surface 
	nubs 1 open 2 
	0 1 1 1 
	0 1 
	1 1 
	
	nullbs 
	I I F 1 F 0 } I I #
point $-1 0 13.555999999999999 24.971309999999999 #
straight-curve $-1 0 -13.555999999999999 24.971309999999999 0 1 0 I I #
End-of-ACIS-data 